<svg width="33" height="33" viewBox="0 0 33 33" xmlns="http://www.w3.org/2000/svg"><g fill-rule="evenodd" clip-rule="evenodd" fill="#1f2348"><path d="M30.25 1.38H2.75A2.75 2.75 0 0 0 0 4.13v24.75a2.75 2.75 0 0 0 2.75 2.75h27.5A2.75 2.75 0 0 0 33 28.88V4.13a2.75 2.75 0 0 0-2.75-2.75zM7.56 4.92a1.37 1.37 0 1 1 2.75 0 1.37 1.37 0 0 1-2.75 0zm6.19-1.38a1.37 1.37 0 1 0 0 2.75 1.37 1.37 0 0 0 0-2.75zm-9.63 0a1.37 1.37 0 1 1 0 2.75 1.37 1.37 0 0 1 0-2.75zm-.68 25.33h26.12c.38 0 .69-.31.69-.7V9.64c0-.38-.3-.7-.69-.7H3.44c-.38 0-.69.32-.69.7v18.56c0 .38.3.68.69.68z"/><path d="M22.34 11h2.07c.19 0 .34.15.34.34v2.07c0 .09-.04.18-.1.24l-.89.89.35 1.24a.69.69 0 0 1-.95.81l-1-.45-.5.5.25 1.66a.69.69 0 0 1-.9.75l-1.32-.44-1.6 1.6a5.16 5.16 0 1 1-2.54-2.56l6.55-6.55c.06-.06.15-.1.24-.1zm-10.3 13.75a1.03 1.03 0 1 0 0-2.06 1.03 1.03 0 0 0 0 2.06z"/></g></svg>
