<svg width="42" height="42" viewBox="0 0 42 42" xmlns="http://www.w3.org/2000/svg"><path fill-rule="evenodd" clip-rule="evenodd" d="M37.2 18.1c.3.1.5.3.6.6a17.1 17.1 0 0 1-16.3 21.8c-9.6.2-17.6-7-18-16v-1c0-5 2.3-9.7 6.3-12.9.2-.1.5-.2.8-.1.3 0 .5.3.6.6.4 1.3 1 2.6 1.8 3.8l.4.2c.2 0 .3-.1.4-.3a15.6 15.6 0 0 0-1-13.6.8.8 0 0 1 0-.8c.1-.3.4-.4.8-.4 10.2 1.8 18 10 18.7 20l.2.4h.5c1.2-.5 2.3-1.2 3.4-2 .2-.3.5-.3.8-.3zM16 33.7c1.3 1.3 3.1 2 5 2a7 7 0 0 0 5-2c1.3-1.2 2-3 2-4.7a6.2 6.2 0 0 0-3.6-6c-.1-.1-.2-.1-.4 0l-.2.2c-.2.7-.7 1.3-1.3 1.8 0 0-.2.1-.4 0a.4.4 0 0 1-.3-.1 7 7 0 0 1 .8-7c.2-.2.2-.4 0-.5a.5.5 0 0 0-.5-.2c-4.8 2-8 6.5-8.1 11.6 0 1.8.7 3.6 2 4.9z" fill="#fc8702"/></svg>
