<svg width="40" height="40" viewBox="0 0 40 40" xmlns="http://www.w3.org/2000/svg"><path d="M21.25 8.33h-10a1.25 1.25 0 1 0 0 2.5h10a1.25 1.25 0 0 0 0-2.5zM22.5 15.42c0-.7-.56-1.25-1.25-1.25H7.92a1.25 1.25 0 0 0 0 2.5h13.33c.69 0 1.25-.56 1.25-1.25zM7.92 20a1.25 1.25 0 1 0 0 2.5h9.16a1.25 1.25 0 1 0 0-2.5H7.92z" fill="#fc8702"/><path d="M18.83 29.43a.42.42 0 0 0-.38-.26H4.17a.83.83 0 0 1-.84-.84V4.17c0-.46.38-.84.84-.84h21.66c.46 0 .84.38.84.84v16.78a.42.42 0 0 0 .7.3l2.14-2.14c.31-.31.49-.74.49-1.18V3.33C30 1.5 28.5 0 26.67 0H3.33A3.33 3.33 0 0 0 0 3.33v25.84C0 31 1.5 32.5 3.33 32.5h13.12c.36 0 .69-.24.8-.59.15-.52.44-.99.83-1.36l.66-.67c.12-.12.16-.3.1-.45zM20.1 33.55a.42.42 0 0 0-.7.22L18.35 39a.83.83 0 0 0 .99.98l5.23-1.04a.42.42 0 0 0 .22-.7l-4.69-4.69zM38.71 19.6a4.37 4.37 0 0 0-6.16 0L21.7 30.45a.83.83 0 0 0 0 1.18l5 5c.33.33.86.33 1.18 0l10.83-10.83a4.37 4.37 0 0 0 0-6.18z" fill="#fc8702"/></svg>
