<svg width="32" height="42" viewBox="0 0 32 42" xmlns="http://www.w3.org/2000/svg"><g fill="#1f2348"><path d="M11.92 28.33a1 1 0 0 0-.96 1.04c.18 4.48-.25 8.92-.93 9.5a1 1 0 1 0 1.2 1.6c1.91-1.44 1.84-8.3 1.72-11.18a1.02 1.02 0 0 0-1.03-.96zM8.99 29.33a1 1 0 1 0-2 0v.87c.02 2.9.03 5.91-1.55 6.97a1 1 0 0 0 1.1 1.66c2.49-1.65 2.47-5.2 2.45-8.64v-.86zM21.97 38.87c-.68-.58-1.12-5.02-.94-9.5a1 1 0 0 0-.96-1.04c-.55 0-1 .42-1.04.96-.12 2.89-.18 9.74 1.73 11.18a.97.97 0 0 0 1.36-.2c.33-.43.26-1.05-.15-1.4zM26.56 37.17c-1.6-1.07-1.58-4.09-1.56-7v-.84a1 1 0 1 0-2 0v.82c-.02 3.45-.04 7.02 2.45 8.68a1 1 0 0 0 1.11-1.66zM16 28.33a1 1 0 0 0-1 1V40a1 1 0 1 0 2 0V29.33a1 1 0 0 0-1-1z"/><path fill-rule="evenodd" clip-rule="evenodd" d="M31.02 19.67a1 1 0 0 1 .98 1v8.66a1 1 0 0 1-1 1h-3.33a1 1 0 0 1-1-1v-2.66a.33.33 0 0 0-.34-.34H5.67a.33.33 0 0 0-.34.34v2.66a1 1 0 0 1-1 1H1a1 1 0 0 1-1-1v-8.66a1 1 0 0 1 1-1h30.02zM29 23.33a1 1 0 1 0 0-2h-2a1 1 0 1 0 0 2h2z"/><path d="M7 2c0-1.1.9-2 2-2h14a2 2 0 0 1 2 2v15a1 1 0 0 1-1 1H8a1 1 0 0 1-1-1V2z"/></g><path fill-rule="evenodd" clip-rule="evenodd" d="M21.5 8.3l-4.8-4.8a1 1 0 0 0-1.4 0l-4.8 4.8a1 1 0 0 0 0 1.4l4.8 4.8a1 1 0 0 0 1.4 0l4.8-4.8a1 1 0 0 0 0-1.4zm-5.97-2.1a.5.5 0 1 1 1 0v3a.5.5 0 0 1-1 0v-3zm.52 5.76a.74.74 0 0 0 .73-.76.76.76 0 0 0-.76-.74h-.01a.74.74 0 0 0-.73.77c.02.4.36.73.77.73z" fill="#fff"/></svg>
