<svg xmlns="http://www.w3.org/2000/svg" width="66" height="66" fill="none"><rect width="66" height="66" fill="#0D2D49" rx="33"/><g fill="#fff" clip-path="url(#a)"><path d="M47.327 30.812c.449-1.746.838-3.513.255-5.284-.496-1.505-1.713-2.826-3.268-3.182-1.135-.26-2.323 0-3.428.363-5.26 1.731-9.393 5.703-13.795 9.043 4.075-4.329 8.589-8.315 13.766-11.266 1.795-1.023 3.688-1.927 5.716-2.34 1.153-.236 2.486-.263 3.359.52.648.583.89 1.488.986 2.35.554 4.999-1.795 10.018-3.751 14.488-.864 1.975-1.89 3.877-2.987 5.734-1.04 1.762-2.146 3.486-3.252 5.208 1.362-2.666 2.587-5.393 3.74-8.153"/><path d="M19.755 36.308c-.658 1.68-1.258 3.388-.895 5.215.31 1.553 1.357 3.01 2.858 3.55 1.094.393 2.305.278 3.446.05 5.433-1.091 10.018-4.54 14.793-7.33-4.571 3.81-9.536 7.228-15.034 9.54-1.906.8-3.895 1.472-5.958 1.64-1.174.096-2.5-.036-3.271-.919-.573-.656-.703-1.583-.694-2.451.057-5.028 2.998-9.73 5.484-13.933 1.098-1.858 2.347-3.624 3.66-5.336 1.248-1.625 2.555-3.204 3.862-4.781-1.676 2.483-3.223 5.044-4.703 7.647"/></g><defs><clipPath id="a"><path fill="#fff" d="M15 18h36v31H15z"/></clipPath></defs></svg>