<svg xmlns="http://www.w3.org/2000/svg" fill="none" viewBox="0 0 66 66"><rect width="66" height="66" fill="#0D2D49" rx="33"/><g fill="#fff" clip-path="url(#a)"><path d="M47.3 30.8c.5-1.7.9-3.5.3-5.3a4.7 4.7 0 0 0-3.3-3.2c-1.1-.2-2.3 0-3.4.4-5.3 1.7-9.4 5.7-13.8 9 4-4.3 8.6-8.3 13.8-11.2 1.8-1 3.6-2 5.7-2.4 1.1-.2 2.5-.2 3.3.6.7.5 1 1.5 1 2.3.6 5-1.8 10-3.7 14.5a53.4 53.4 0 0 1-6.3 11 117 117 0 0 0 3.8-8.2"/><path d="M19.8 36.3a9.2 9.2 0 0 0-1 5.2 5 5 0 0 0 3 3.6c1 .4 2.2.3 3.4 0 5.4-1 10-4.5 14.8-7.3a60.3 60.3 0 0 1-15 9.5c-2 .8-4 1.5-6 1.7-1.2 0-2.5 0-3.3-1-.6-.6-.7-1.5-.7-2.4 0-5 3-9.7 5.5-14a53.8 53.8 0 0 1 7.5-10 117 117 0 0 0-4.7 7.6"/></g><defs><clipPath id="a"><path fill="#fff" d="M15 18h36v31H15z"/></clipPath></defs></svg>