<svg width="33" height="35" viewBox="0 0 33 35" xmlns="http://www.w3.org/2000/svg"><path fill-rule="evenodd" clip-rule="evenodd" d="M32.3 20.2a8.08 8.08 0 0 1-5.76 7.73c-.57.17-.96.7-.96 1.3v1.73a4.04 4.04 0 0 1-3.23 3.96.68.68 0 0 1-.81-.66v-4.64a1.35 1.35 0 1 0-2.7 0v4.7c0 .38-.3.68-.67.68h-4.04a.67.67 0 0 1-.67-.67v-4.71a1.35 1.35 0 1 0-2.7 0v4.64a.68.68 0 0 1-.8.66 4.04 4.04 0 0 1-3.23-3.96v-1.73c0-.6-.39-1.13-.96-1.3A8.08 8.08 0 0 1 0 20.2v-4.04a16.15 16.15 0 0 1 32.3 0v4.04zM8.09 21.53a4.04 4.04 0 1 0 0-8.08 4.04 4.04 0 0 0 0 8.08zm20.19-4.04a4.04 4.04 0 1 1-8.08 0 4.04 4.04 0 0 1 8.08 0z" fill="#1f2348"/></svg>
