<svg xmlns="http://www.w3.org/2000/svg" width="441.6" height="464" viewBox="0 0 116.8 122.8"><defs><clipPath id="b"><path transform="matrix(.5 0 0 .5 0 8)" d="M251.6 17.3l63.5 110a32 32 0 0 1 0 32l-63.5 110.1a32 32 0 0 1-27.7 16h-127a32 32 0 0 1-27.8-16l-63.5-110a32 32 0 0 1 0-32l63.5-110a32 32 0 0 1 27.7-16H224a32 32 0 0 1 27.7 16z"/></clipPath><clipPath id="c"><path transform="matrix(.5 0 0 .5 0 8)" d="M251.6 17.3l63.5 110a32 32 0 0 1 0 32l-63.5 110.1a32 32 0 0 1-27.7 16h-127a32 32 0 0 1-27.8-16l-63.5-110a32 32 0 0 1 0-32l63.5-110a32 32 0 0 1 27.7-16H224a32 32 0 0 1 27.7 16z"/></clipPath><clipPath id="a"><path transform="matrix(.5 0 0 .5 0 8)" d="M251.6 17.3l63.5 110a32 32 0 0 1 0 32l-63.5 110.1a32 32 0 0 1-27.7 16h-127a32 32 0 0 1-27.8-16l-63.5-110a32 32 0 0 1 0-32l63.5-110a32 32 0 0 1 27.7-16H224a32 32 0 0 1 27.7 16z"/></clipPath><clipPath id="d"><path transform="matrix(.5 0 0 .5 0 8)" d="M251.6 17.3l63.5 110a32 32 0 0 1 0 32l-63.5 110.1a32 32 0 0 1-27.7 16h-127a32 32 0 0 1-27.8-16l-63.5-110a32 32 0 0 1 0-32l63.5-110a32 32 0 0 1 27.7-16H224a32 32 0 0 1 27.7 16z"/></clipPath><clipPath id="e"><path transform="matrix(.5 0 0 .5 0 8)" d="M251.6 17.3l63.5 110a32 32 0 0 1 0 32l-63.5 110.1a32 32 0 0 1-27.7 16h-127a32 32 0 0 1-27.8-16l-63.5-110a32 32 0 0 1 0-32l63.5-110a32 32 0 0 1 27.7-16H224a32 32 0 0 1 27.7 16z"/></clipPath><clipPath id="f"><path transform="matrix(.5 0 0 .5 0 8)" d="M251.6 17.3l63.5 110a32 32 0 0 1 0 32l-63.5 110.1a32 32 0 0 1-27.7 16h-127a32 32 0 0 1-27.8-16l-63.5-110a32 32 0 0 1 0-32l63.5-110a32 32 0 0 1 27.7-16H224a32 32 0 0 1 27.7 16z"/></clipPath><clipPath id="g"><path transform="matrix(.5 0 0 .5 0 8)" d="M251.6 17.3l63.5 110a32 32 0 0 1 0 32l-63.5 110.1a32 32 0 0 1-27.7 16h-127a32 32 0 0 1-27.8-16l-63.5-110a32 32 0 0 1 0-32l63.5-110a32 32 0 0 1 27.7-16H224a32 32 0 0 1 27.7 16z"/></clipPath></defs><g transform="translate(37.3 40.2) scale(.26458)" clip-path="url(#a)"><g color="#0582ca" fill="#fa7268"><path fill="#88b04b" d="M0 0h160v160H0z"/><circle cx="80" cy="80" r="40" fill="#0582ca"/><path d="M119.2 80a39.5 39.5 0 0 1-67.1 28.1c10.3 2.4 36 3 49.8-14.2 10.4-12.5 8.3-33.3 4.2-43.3A39.4 39.4 0 0 1 119.2 80z" opacity=".1" fill="#010101"/></g></g><g transform="translate(-.2 18.5) scale(.26458)" clip-path="url(#b)"><g color="#0582ca" fill="#88b04b"><path fill="#fc8702" d="M0 0h160v160H0z"/><circle cx="80" cy="80" r="40" fill="#0582ca"/><path d="M119.2 80a39.5 39.5 0 0 1-67.1 28.1c10.3 2.4 36 3 49.8-14.2 10.4-12.5 8.3-33.3 4.2-43.3A39.4 39.4 0 0 1 119.2 80z" opacity=".1" fill="#010101"/></g></g><g transform="translate(74.6 18.5) scale(.26458)" clip-path="url(#c)"><g color="#fa7268" fill="#e9b213"><path fill="#21bca5" d="M0 0h160v160H0z"/><circle cx="80" cy="80" r="40" fill="#fa7268"/><path d="M119.2 80a39.5 39.5 0 0 1-67.1 28.1c10.3 2.4 36 3 49.8-14.2 10.4-12.5 8.3-33.3 4.2-43.3A39.4 39.4 0 0 1 119.2 80z" opacity=".1" fill="#010101"/></g></g><g transform="translate(74.6 61.9) scale(.26458)" clip-path="url(#d)"><g color="#1a5493" fill="#e9b213"><path fill="#0582ca" d="M0 0h160v160H0z"/><circle cx="80" cy="80" r="40" fill="#1a5493"/><path d="M119.2 80a39.5 39.5 0 0 1-67.1 28.1c10.3 2.4 36 3 49.8-14.2 10.4-12.5 8.3-33.3 4.2-43.3A39.4 39.4 0 0 1 119.2 80z" opacity=".1" fill="#010101"/></g></g><g transform="translate(37.3 82.9) scale(.26458)" clip-path="url(#e)"><g color="#e9b213" fill="#fc8702"><path fill="#fa7268" d="M0 0h160v160H0z"/><circle cx="80" cy="80" r="40" fill="#e9b213"/><path d="M119.2 80a39.5 39.5 0 0 1-67.1 28.1c10.3 2.4 36 3 49.8-14.2 10.4-12.5 8.3-33.3 4.2-43.3A39.4 39.4 0 0 1 119.2 80z" opacity=".1" fill="#010101"/></g></g><g transform="translate(37.3 -2.3) scale(.26458)" clip-path="url(#f)"><g color="#e9b213" fill="#d94432"><path d="M0 0h160v160H0z" fill="#fc8702"/><circle cx="80" cy="80" r="40" fill="#e9b213"/><path d="M119.2 80a39.5 39.5 0 0 1-67.1 28.1c10.3 2.4 36 3 49.8-14.2 10.4-12.5 8.3-33.3 4.2-43.3A39.4 39.4 0 0 1 119.2 80z" opacity=".1" fill="#010101"/></g></g><g transform="translate(-.2 61.9) scale(.26458)" clip-path="url(#g)"><g color="#e9b213" fill="#1a5493"><path d="M0 0h160v160H0z" fill="#5f4b8b"/><circle cx="80" cy="80" r="40" fill="#e9b213"/><path d="M119.2 80a39.5 39.5 0 0 1-67.1 28.1c10.3 2.4 36 3 49.8-14.2 10.4-12.5 8.3-33.3 4.2-43.3A39.4 39.4 0 0 1 119.2 80z" opacity=".1" fill="#010101"/></g></g></svg>