<svg width="39" height="39" fill="none" xmlns="http://www.w3.org/2000/svg"><g opacity=".4" fill="#1F2348"><path fill-rule="evenodd" clip-rule="evenodd" d="M22 14c0-2.2-1-4.4-2.5-6.1v-4a4 4 0 0 0-4-3.9 4 4 0 0 0-4.1 3.9v.8a9.6 9.6 0 0 0-8.9 8.1c-.6 4.4 2.1 8.6 6.4 10v1l-1.4 1.4a.8.8 0 0 0 0 1L9 27.7v1l-1.4 1.3c-.3.3-.3.8 0 1L9 32.4v2l.3.6 2.4 2.3a.8.8 0 0 0 1.2 0l2.4-2.3c.2-.2.2-.4.2-.6V23A9.4 9.4 0 0 0 22 14zm-9.8-4.6c.9 0 1.6.7 1.6 1.5 0 .9-.7 1.6-1.6 1.6-1 0-1.6-.7-1.6-1.6 0-.8.7-1.5 1.6-1.5zm5.7-5.5c0-1.3-1.1-2.3-2.5-2.3-1.3 0-2.4 1-2.4 2.3v3.9h1.6V5c1.2.3 2.3.8 3.3 1.4V4z"/><path d="M36.3 28.1l-8.4-8a9 9 0 0 0-3.5-12 .8.8 0 0 0-1 .1c-.2.3-.3.6-.2 1 2.6 5.2.7 11.6-4.5 14.7-.3.2-.4.5-.3.9 0 .3.4.5.8.5 1.4 0 2.8-.3 4.1-.9l1 .9v2c0 .4.4.8.9.8h2l.4.3v2c0 .5.4.8.8.8h1.8l1.5 1.3.6.3h3.5c.4 0 .8-.4.8-.8v-3.3l-.3-.6z"/></g></svg>