<svg width="72" height="246" fill="#fff" xmlns="http://www.w3.org/2000/svg">
    <g opacity="0.5">
        <rect x="-25.7" y="22.1" width="29.8" height="8" rx="4"/>
        <rect x="7.8" y="22.1" width="37.3" height="8" rx="4"/>
        <rect x="-14.5" y="41.6" width="35.4" height="4" rx="2"/>
        <path fill-rule="evenodd" clip-rule="evenodd" d="M16.8 151.6H33c1.5 0 2.7 1.3 2.7 2.9V172c0 1.6-1.2 3-2.7 3H16.8c-1.5 0-2.8-1.4-2.8-3v-17.5c0-1.6 1.3-3 2.8-3zM29.7 169c.3 0 .6-.4.6-.8v-10.2c0-.4-.3-.7-.6-.7H20c-.3 0-.6.3-.6.7v10.2c0 .4.3.8.6.8h9.6z"/>
        <path d="M-2.3 164H.4c1.2 0 2-1 2-2.2 0-1.2-.8-2.2-2-2.2-.3 0-.6-.3-.6-.7v-4.4c0-1.2-1-2.2-2-2.2-1.2 0-2.1 1-2.1 2.2v7.3c0 1.2.9 2.2 2 2.2zM5.9 156.7c.4 0 .7.3.7.7v16c0 1.3.9 2.2 2 2.2s2-1 2-2.2v-19c0-1.1-.9-2-2-2H5.9c-1.1 0-2 .9-2 2 0 1.3.9 2.3 2 2.3zM-21.3 180c-1.1 0-2 1-2 2.2v7.3c0 .4-.3.7-.7.7h-2.7c-1.2 0-2 1-2 2.2 0 1.2.8 2.2 2 2.2H8.6c1.1 0 2-1 2-2.2v-8.7c0-1.3-.9-2.2-2-2.2s-2 1-2 2.2v5.8c0 .4-.3.7-.7.7h-24.5c-.4 0-.7-.3-.7-.7v-7.3c0-1.2-.9-2.2-2-2.2zM8 201.2c0-1.3-1-2.2-2.1-2.2h-8.2c-1.1 0-2 1-2 2.2v11.6c0 1.2.9 2.2 2 2.2 1.2 0 2-1 2-2.2v-8.7c0-.4.4-.8.7-.8H6c1.1 0 2-1 2-2.1zM33 216.5H10c-.4 0-.7-.4-.7-.8V210c0-1.2-1-2.2-2-2.2-1.2 0-2.1 1-2.1 2.2v8.8c0 1.2 1 2.1 2 2.1h25.9c1 0 2-1 2-2.2 0-1.2-1-2.1-2-2.1z"/>
        <path fill-rule="evenodd" clip-rule="evenodd" d="M23.5 210.6h-8.1c-1.1 0-2-1-2-2.2v-8.7c0-1.2.9-2.2 2-2.2h8.1c1.2 0 2 1 2 2.2v8.7c0 1.3-.8 2.2-2 2.2zm-5.4-8.7c-.4 0-.7.3-.7.7v3c0 .3.3.7.7.7h2.7c.4 0 .7-.4.7-.8v-2.9c0-.4-.3-.7-.7-.7h-2.7z"/>
        <path d="M31.7 188.8c-1.1 0-2 1-2 2.1v19c0 1.2.9 2.2 2 2.2s2-1 2-2.2v-19c0-1.2-.9-2.1-2-2.1zM33.7 180.7c0-1.2-.9-2.1-2-2.1h-15c-1 0-2 1-2 2.1v8.8c0 1.2 1 2.2 2 2.2 1.2 0 2-1 2-2.2v-5.8c0-.4.4-.8.8-.8h12.2c1.1 0 2-1 2-2.2z"/>
        <path d="M18.8 112.5H18l-.3-.1-.2-.3v-1c0-.3-.1-.6-.4-.9a1.4 1.4 0 00-2 0c-.2.3-.4.6-.4 1v.9a.4.4 0 010 .3.5.5 0 01-.4.1h-1c-.3 0-.7.1-1 .4-.2.2-.3.6-.3 1 0 .3.1.6.4.9.2.2.6.4 1 .4H14.5a.4.4 0 01.1.4v.9c0 .3.2.7.5 1a1.4 1.4 0 002 0c.2-.3.3-.7.3-1v-.9c0-.1 0-.2.2-.3l.3-.1h1c.3 0 .6-.2 1-.4.2-.3.3-.6.3-1 0-.3-.1-.7-.4-.9-.3-.3-.6-.4-1-.4z"/>
    </g>
    <path opacity="0.6" d="M22 88.8a13.4 13.4 0 00-4.4-10 11.7 11.7 0 00-10.2-2.5 12.7 12.7 0 00-8.2 6.9 13.4 13.4 0 000 11 1 1 0 01-.1 1.1l-15 16c-.7.7-1 1.6-1 2.5 0 1 .3 1.9 1 2.6a3.3 3.3 0 004.8.1.8.8 0 011.1 0l2.6 2.8a1.7 1.7 0 001.2.5 1.6 1.6 0 001.2-.5 1.8 1.8 0 00.5-1.3 2 2 0 00-.5-1.3l-2.6-2.7a1 1 0 01-.2-.7 1 1 0 01.2-.6l1.1-1.2.6-.2c.3 0 .5 0 .6.2l2.6 2.7c.3.4.7.6 1.2.6.4 0 .9-.2 1.2-.6.3-.3.5-.8.5-1.3 0-.4-.2-.9-.5-1.2l-2.5-2.7a1 1 0 01-.3-.7c0-.2.1-.5.3-.6l6.7-7.2.5-.3.5.1a11.4 11.4 0 0011.6-.7A13.4 13.4 0 0022 88.8zm-12 5.5a5.4 5.4 0 01-4.8-3.4 5.8 5.8 0 011.2-6 4.9 4.9 0 015.6-1.2c1 .4 1.8 1.1 2.3 2a5.7 5.7 0 01-.6 7 5 5 0 01-3.6 1.6z"/>
</svg>
