<svg width="32" height="42" fill="none" xmlns="http://www.w3.org/2000/svg"><g opacity=".4" fill="#1F2348"><path d="M12 28.3a1 1 0 0 0-1 1c.1 4.6-.3 9-1 9.6a1 1 0 1 0 1.2 1.6c2-1.5 1.9-8.3 1.8-11.2 0-.6-.5-1-1-1zM9 29.3a1 1 0 1 0-2 0v.9c0 3 0 6-1.6 7a1 1 0 0 0 1.1 1.6C9 37.2 9 33.6 9 30.2v-.9zM22 38.9c-.7-.6-1.2-5-1-9.5 0-.6-.4-1-1-1a1 1 0 0 0-1 .9c0 2.9-.1 9.7 1.8 11.2.4.3 1 .2 1.3-.2.4-.5.3-1-.1-1.4zM26.6 37.2C25 36 25 33 25 30.2v-.9a1 1 0 1 0-2 0v.9c0 3.4 0 7 2.5 8.6a1 1 0 0 0 1-1.6zM16 28.3a1 1 0 0 0-1 1V40a1 1 0 1 0 2 0V29.3a1 1 0 0 0-1-1z"/><path fill-rule="evenodd" clip-rule="evenodd" d="M31 19.7c.6 0 1 .4 1 1v8.6c0 .6-.4 1-1 1h-3.3a1 1 0 0 1-1-1v-2.6c0-.2-.2-.4-.4-.4H5.7c-.2 0-.4.2-.4.4v2.6c0 .6-.4 1-1 1H1a1 1 0 0 1-1-1v-8.6c0-.6.4-1 1-1h30zm-2 3.6a1 1 0 1 0 0-2h-2a1 1 0 1 0 0 2h2z"/></g><path opacity=".4" d="M7 2c0-1.1.9-2 2-2h14a2 2 0 0 1 2 2v15c0 .6-.4 1-1 1H8a1 1 0 0 1-1-1V2z" fill="#1F2348"/><path fill-rule="evenodd" clip-rule="evenodd" d="M21.5 8.3l-4.8-4.8a1 1 0 0 0-1.4 0l-4.8 4.8a1 1 0 0 0 0 1.4l4.8 4.8c.4.4 1 .4 1.4 0l4.8-4.8a1 1 0 0 0 0-1.4zm-6-2a.5.5 0 1 1 1 0v3a.5.5 0 0 1-1 0v-3zM16 12a.7.7 0 0 0 .8-.8c0-.4-.4-.7-.8-.7a.7.7 0 0 0-.7.7c0 .4.3.8.7.8z" fill="#fff"/></svg>