<svg width="43" height="43" fill="none" xmlns="http://www.w3.org/2000/svg">
  <path d="M0 15.58C0 10.12 0 7.4 1.06 5.32a9.74 9.74 0 0 1 4.26-4.26C7.4 0 10.12 0 15.58 0h11.84c5.46 0 8.18 0 10.26 1.06a9.74 9.74 0 0 1 4.26 4.26C43 7.4 43 10.12 43 15.58v11.84c0 5.46 0 8.18-1.06 10.26a9.74 9.74 0 0 1-4.26 4.26C35.6 43 32.88 43 27.42 43H15.58c-5.46 0-8.18 0-10.26-1.06a9.74 9.74 0 0 1-4.26-4.26C0 35.6 0 32.88 0 27.42V15.58Z" fill="url(#a)"/>
  <path fill-rule="evenodd" clip-rule="evenodd" d="m13.73 32.8-2.67.72a.46.46 0 0 1-.56-.33l-.72-2.67a.46.46 0 0 1 .05-.35l.84-1.46-.88-1.49a.92.92 0 0 1 .95-1.38l1.45.25.47-.82-.9-2.07a.92.92 0 0 1 .9-1.29l1.87.11 1.51-2.6.18-.36-2.07-3.54a1.19 1.19 0 0 1 0-1.2l3.07-5.25c.22-.37.63-.6 1.07-.6h6.14c.44 0 .85.22 1.06.6l3.08 5.24c.22.38.22.84 0 1.21l-3.08 5.24c-.22.38-.62.6-1.06.6h-3.97l-.23.47-6.21 10.76a.46.46 0 0 1-.29.21Zm7.47-20.48a2.32 2.32 0 1 0 0 4.64 2.32 2.32 0 0 0 0-4.64Z" fill="#fff"/>
  <path d="m24.15 34.12-1.95 1.96a.46.46 0 0 1-.65 0l-1.96-1.96a.46.46 0 0 1-.13-.32V32.1l-1.51-.85a.92.92 0 0 1-.44-1.04l.24-.42c.1-.09.2-.16.33-.2l1.38-.52v-.95l-.52-.38 2.62-4.54h2.73V33.8a.46.46 0 0 1-.14.32ZM26.13 27.18V22.7c.38-.25.71-.6.95-1l1.64-2.8.13.23 6.21 10.76a.46.46 0 0 1 .05.35l-.72 2.67a.46.46 0 0 1-.56.33l-2.67-.72a.46.46 0 0 1-.28-.21l-.84-1.46-1.73.02a.92.92 0 0 1-.73-1.51l.94-1.14-.47-.82-1.92-.22Z" fill="#fff"/>
  <defs>
    <radialGradient id="a" cx="0" cy="0" r="1" gradientUnits="userSpaceOnUse" gradientTransform="matrix(-43 0 0 -43 43 43)">
      <stop stop-color="#EC991C"/>
      <stop offset="1" stop-color="#E9B213"/>
    </radialGradient>
  </defs>
</svg>
